<svg width="34" height="20" viewBox="0 0 34 20" fill="none" xmlns="http://www.w3.org/2000/svg">
<path d="M17.0143 9.98393C19.766 9.98393 22.0135 7.75087 22.0135 4.99918C22.0135 2.24749 19.7804 0.0144348 17.0143 0.0144348C14.2626 0.0144348 12.0296 2.23308 12.0296 4.99918C12.0296 7.76528 14.2626 9.98393 17.0143 9.98393ZM21.4372 10.7619H21.0338C20.8897 10.7619 20.688 10.8195 20.5584 10.8771C20.5584 10.8771 20.2414 11.0644 19.9533 11.1797C19.0889 11.5543 18.0948 11.7704 17.0431 11.7704C15.9914 11.7704 15.0118 11.5543 14.133 11.1941C13.8448 11.0644 13.5135 10.8771 13.5135 10.8771C13.3982 10.8051 13.1821 10.7619 13.038 10.7619H12.6491C11.0499 10.9636 9.37872 12.3755 8.9033 13.917C8.9033 13.917 8.39906 14.9543 8.32703 16.9712C8.32703 17.2305 8.52872 17.5763 8.80245 17.7204C8.80245 17.7204 11.5109 19.4636 17.0287 19.4636C22.5465 19.4636 25.255 17.7204 25.255 17.7204C25.5287 17.5763 25.7448 17.2017 25.7304 16.9712C25.6584 14.9543 25.1686 13.9602 25.1686 13.9602C24.7219 12.4187 23.0219 10.9924 21.4372 10.7619Z" fill="#AB41FF"/>
<path d="M21.5526 9.5661C22.0857 9.14831 22.7196 8.84576 23.3246 8.75932H23.5984C23.7424 8.75932 23.9585 8.81695 24.0738 8.87458C24.0738 8.87458 24.3043 9.00424 24.5348 9.10509C25.2407 9.40763 26.0475 9.58051 26.8975 9.58051C27.7475 9.58051 28.5687 9.40763 29.2746 9.10509C29.5052 9.00424 29.7357 8.87458 29.7357 8.87458C29.8509 8.80254 30.067 8.75932 30.2111 8.75932H30.4992C31.7958 8.94661 33.1789 10.0992 33.5391 11.3669C33.5391 11.3669 33.9424 12.1737 34.0001 13.8161C34.0001 13.9602 33.784 14.3203 33.5246 14.4644C33.5246 14.4644 31.4068 15.8331 26.9119 15.8331C26.8399 15.8331 26.7679 15.8331 26.6958 15.8331C26.7102 15.6458 26.7246 15.4729 26.7246 15.2856C26.7102 12.3034 24.4484 9.86864 21.5526 9.5661ZM26.8975 8.12542C29.145 8.12542 30.9602 6.31017 30.9602 4.06271C30.9602 1.81525 29.145 0 26.8975 0C24.6501 0 22.8348 1.81525 22.8348 4.06271C22.8348 6.31017 24.6501 8.12542 26.8975 8.12542Z" fill="#AB41FF"/>
<path d="M12.4475 9.5661C11.9144 9.14831 11.2805 8.84576 10.6754 8.75932H10.4017C10.2576 8.75932 10.0415 8.81695 9.92627 8.87458C9.92627 8.87458 9.69576 9.00424 9.46525 9.10509C8.75932 9.40763 7.95254 9.58051 7.10254 9.58051C6.25254 9.58051 5.43136 9.40763 4.72542 9.10509C4.49492 9.00424 4.26441 8.87458 4.26441 8.87458C4.14915 8.80254 3.93305 8.75932 3.78898 8.75932H3.50085C2.20424 8.94661 0.821186 10.0992 0.461017 11.3669C0.461017 11.3669 0.0576271 12.1737 0 13.8161C0 13.9602 0.216102 14.3203 0.475424 14.4644C0.475424 14.4644 2.59322 15.8331 7.08814 15.8331C7.16017 15.8331 7.2322 15.8331 7.30424 15.8331C7.28983 15.6458 7.27542 15.4729 7.27542 15.2856C7.28983 12.3034 9.55169 9.86864 12.4475 9.5661ZM7.10254 8.12542C4.85508 8.12542 3.03983 6.31017 3.03983 4.06271C3.03983 1.81525 4.85508 0 7.10254 0C9.35 0 11.1653 1.81525 11.1653 4.06271C11.1653 6.31017 9.35 8.12542 7.10254 8.12542Z" fill="#AB41FF"/>
</svg>
