<svg width="21" height="22" viewBox="0 0 21 22" fill="none" xmlns="http://www.w3.org/2000/svg">
<path d="M18.8974 22H13.8205C13.0415 22 12.4103 21.3688 12.4103 20.5897V15.5128C12.4103 14.8895 11.9054 14.3846 11.2821 14.3846H9.02564C8.40231 14.3846 7.89744 14.8895 7.89744 15.5128V20.5897C7.89744 21.3688 7.2662 22 6.48718 22H1.41026C0.631231 22 0 21.3688 0 20.5897V9.82272C0 8.52585 0.594564 7.30062 1.61277 6.49846L9.62979 0.181077C9.93723 -0.060359 10.3705 -0.060359 10.6773 0.181077L18.6955 6.49846C19.7137 7.30062 20.3077 8.52528 20.3077 9.82159V20.5897C20.3077 21.3688 19.6765 22 18.8974 22Z" fill="white"/>
</svg>
