<svg width="174" height="42" viewBox="0 0 174 42" fill="none" xmlns="http://www.w3.org/2000/svg">
<path d="M0.921875 4.20312C0.8125 3.45312 0.757812 3.04688 0.757812 2.98438C0.757812 2.84375 0.765625 2.71094 0.78125 2.58594C2.76562 1.83594 4.78906 1.46094 6.85156 1.46094C7.57031 1.46094 8.52344 1.53125 9.71094 1.67188C10.0703 1.82812 10.4062 2.07031 10.7188 2.39844C11.0312 2.72656 11.4062 3.26562 11.8438 4.01562C12.2969 4.75 13.4062 6.71875 15.1719 9.92188C17.0469 6.42188 18.3906 3.70312 19.2031 1.76562C20.4062 1.45312 21.5625 1.29688 22.6719 1.29688C23.7812 1.29688 24.8047 1.4375 25.7422 1.71875C23.4453 5.4375 20.5625 9.27344 17.0938 13.2266C19.8438 17.9141 22.7734 21.3047 25.8828 23.3984C25.8828 24.3516 25.5156 25.1484 24.7812 25.7891C24.0625 26.4297 23.1875 26.75 22.1562 26.75C22.0156 26.75 21.7188 26.7344 21.2656 26.7031C20.8281 26.6875 20.2344 26.4688 19.4844 26.0469C18.75 25.6406 18.0781 25.1484 17.4688 24.5703C16.8594 23.9766 16.2031 23.1875 15.5 22.2031C14.4375 20.7188 13.2422 18.8125 11.9141 16.4844C11.5703 17.0781 10.8672 18.4766 9.80469 20.6797C8.75781 22.8672 7.875 24.6406 7.15625 26C5.95312 26.3125 4.79688 26.4688 3.6875 26.4688C2.59375 26.4688 1.57812 26.3281 0.640625 26.0469C1.54688 24.3906 3.08594 22.1406 5.25781 19.2969C7.44531 16.4531 9.05469 14.4453 10.0859 13.2734C7.78906 9.27344 5.86719 6.60156 4.32031 5.25781C3.44531 4.55469 2.3125 4.20312 0.921875 4.20312Z" fill="#AB41FF"/>
<path d="M32.3984 41.2109C32.7109 38.1016 32.8672 32.7188 32.8672 25.0625C32.8672 17.3906 32.6484 11.4453 32.2109 7.22656C32.1172 5.61719 31.2344 4.74219 29.5625 4.60156C29.5469 4.50781 29.5234 4.39844 29.4922 4.27344C29.4766 4.13281 29.4609 4.02344 29.4453 3.94531C29.4141 3.72656 29.3984 3.53906 29.3984 3.38281C29.3984 3.22656 29.4062 3.08594 29.4219 2.96094C31.5 2.16406 33.1953 1.67969 34.5078 1.50781C35.8203 1.32031 36.7734 1.22656 37.3672 1.22656C37.9766 1.22656 38.3516 1.22656 38.4922 1.22656C38.8516 1.77344 39.0938 2.78125 39.2188 4.25C40.2969 3.26562 41.5547 2.48438 42.9922 1.90625C44.4453 1.32812 45.7969 1.03906 47.0469 1.03906C48.3125 1.03906 49.4062 1.14062 50.3281 1.34375C51.25 1.53125 52.1562 1.89062 53.0469 2.42188C53.9531 2.9375 54.7344 3.60938 55.3906 4.4375C57 6.46875 57.8047 9.36719 57.8047 13.1328C57.8047 14.9297 57.5234 16.6016 56.9609 18.1484C56.3984 19.6953 55.6562 21 54.7344 22.0625C53.8281 23.125 52.7891 24.0312 51.6172 24.7812C49.3516 26.2344 47.0938 26.9609 44.8438 26.9609C42.5938 26.9609 40.7812 26.7344 39.4062 26.2812C39.4062 29.2344 39.375 34.2578 39.3125 41.3516C37.8906 41.6016 36.6094 41.7266 35.4688 41.7266C34.3438 41.7266 33.3203 41.5547 32.3984 41.2109ZM39.3125 6.75781C39.375 10.6641 39.4062 16.1641 39.4062 23.2578C40.375 23.6172 41.4766 23.7969 42.7109 23.7969C43.9609 23.7969 45.0078 23.6016 45.8516 23.2109C46.6953 22.8047 47.4844 22.2109 48.2188 21.4297C49.8281 19.6953 50.6328 17.0781 50.6328 13.5781C50.6328 9.96875 49.8906 7.53125 48.4062 6.26562C47.2969 5.3125 45.9219 4.83594 44.2812 4.83594C42.6562 4.83594 41 5.47656 39.3125 6.75781ZM69.6875 15.875C70.1562 18.1875 71.1562 20.0547 72.6875 21.4766C74.2188 22.8984 76.0078 23.6094 78.0547 23.6094C80.1016 23.6094 82.1641 22.7266 84.2422 20.9609C85.0234 21.4766 85.5 22.0859 85.6719 22.7891C84.2344 24.4609 82.1094 25.6562 79.2969 26.375C78.1562 26.6719 76.8359 26.8203 75.3359 26.8203C73.8516 26.8203 72.3125 26.5469 70.7188 26C69.125 25.4688 67.6953 24.6875 66.4297 23.6562C65.1797 22.625 64.1875 21.2734 63.4531 19.6016C62.7188 17.9141 62.3516 16.0469 62.3516 14C62.3516 11.9531 62.7266 10.1016 63.4766 8.44531C64.2266 6.77344 65.2188 5.40625 66.4531 4.34375C69.0312 2.10938 71.9844 0.992188 75.3125 0.992188C78.2344 0.992188 80.7656 1.78125 82.9062 3.35938C83.9375 4.14062 84.7578 5.15625 85.3672 6.40625C85.9922 7.64062 86.3047 9.03906 86.3047 10.6016C86.3047 13.2734 85.4219 14.6797 83.6562 14.8203L69.6875 15.875ZM80 9.89844C80 8.03906 79.4844 6.58594 78.4531 5.53906C77.4219 4.49219 76.0703 3.96875 74.3984 3.96875C72.7266 3.96875 71.4609 4.75781 70.6016 6.33594C69.7422 7.89844 69.3125 10.0703 69.3125 12.8516C73.2031 12.4297 76.7188 11.9844 79.8594 11.5156C79.9531 10.9531 80 10.4141 80 9.89844ZM109.648 20.9141L109.883 11.9844C109.883 9.95312 109.812 8.67188 109.672 8.14062C109.547 7.60938 109.383 7.21094 109.18 6.94531C108.742 6.39844 108.102 6.125 107.258 6.125C106.414 6.125 105.695 6.21875 105.102 6.40625C103.883 6.8125 102.32 7.95312 100.414 9.82812C100.414 11.8594 100.367 17.2656 100.273 26.0469C98.5391 26.3438 97.0938 26.4922 95.9375 26.4922C94.7812 26.4922 93.8047 26.3438 93.0078 26.0469C93.2891 22.25 93.4297 18.75 93.4297 15.5469C93.4297 12.3281 93.3906 9.55469 93.3125 7.22656C93.3125 6.03906 92.8906 5.33594 92.0469 5.11719C91.5156 4.94531 90.7656 4.82031 89.7969 4.74219C89.7031 4.33594 89.6562 4.01562 89.6562 3.78125C89.6562 3.53125 89.6875 3.30469 89.75 3.10156C92 1.83594 94.7969 1.20312 98.1406 1.20312C98.6875 1.20312 99.0938 1.21094 99.3594 1.22656C99.9688 2.27344 100.305 4.07031 100.367 6.61719C103.289 2.86719 106.711 0.992188 110.633 0.992188C112.445 0.992188 113.859 1.60938 114.875 2.84375C115.906 4.0625 116.492 5.71875 116.633 7.8125C116.695 8.76562 116.727 9.71875 116.727 10.6719C116.727 11.625 116.68 12.6562 116.586 13.7656C116.32 17.1406 116.188 19.7266 116.188 21.5234C116.188 21.9297 116.477 22.2422 117.055 22.4609C117.633 22.6797 118.195 22.7891 118.742 22.7891C119.305 22.7891 119.688 22.7578 119.891 22.6953C120.078 23.1172 120.172 23.5078 120.172 23.8672C120.172 24.2109 120.156 24.4453 120.125 24.5703C117.203 26.0859 115.023 26.8438 113.586 26.8438C112.148 26.8438 111.133 26.3594 110.539 25.3906C109.945 24.4062 109.648 22.9141 109.648 20.9141ZM125.609 18.5469C125.969 18.4844 126.484 18.4531 127.156 18.4531C127.844 18.4531 128.75 18.7266 129.875 19.2734C129.859 19.3984 129.852 19.6328 129.852 19.9766C129.852 20.3203 129.93 20.7422 130.086 21.2422C130.258 21.7422 130.516 22.2031 130.859 22.625C131.609 23.5625 132.844 24.0312 134.562 24.0312C136.281 24.0312 137.406 23.4531 137.938 22.2969C138.391 21.2344 138.312 20.1328 137.703 18.9922C137.25 18.1484 136.039 17.3438 134.07 16.5781C133.742 16.4531 133.289 16.2812 132.711 16.0625C127.523 14.2031 124.898 11.5156 124.836 8C124.836 6.40625 125.281 5.0625 126.172 3.96875C127.859 1.92188 130.711 0.898438 134.727 0.898438C137.367 0.898438 139.594 1.44531 141.406 2.53906C143.234 3.63281 144.148 4.97656 144.148 6.57031C144.148 8.35156 143.281 9.24219 141.547 9.24219C140.312 9.24219 139.445 9.10938 138.945 8.84375C138.445 8.5625 138.195 8.40625 138.195 8.375C138.195 8.28125 138.195 8.19531 138.195 8.11719C138.195 5.19531 136.773 3.73438 133.93 3.73438C132.945 3.73438 132.164 3.99219 131.586 4.50781C131.023 5.00781 130.742 5.75 130.742 6.73438C130.742 7.70312 131.086 8.50781 131.773 9.14844C132.477 9.78906 133.82 10.5078 135.805 11.3047C137.805 12.1016 139.086 12.6406 139.648 12.9219C143.164 14.625 144.922 16.8281 144.922 19.5312C144.922 21.875 143.93 23.6797 141.945 24.9453C139.977 26.1953 137.352 26.8203 134.07 26.8203C131.898 26.8203 130.258 26.6328 129.148 26.2578C128.039 25.8828 127.195 25.5391 126.617 25.2266C126.055 24.9141 125.586 24.5859 125.211 24.2422C124.852 23.8984 124.547 23.5391 124.297 23.1641C123.625 22.1797 123.43 21.1797 123.711 20.1641C123.945 19.3047 124.578 18.7656 125.609 18.5469ZM156.594 15.875C157.062 18.1875 158.062 20.0547 159.594 21.4766C161.125 22.8984 162.914 23.6094 164.961 23.6094C167.008 23.6094 169.07 22.7266 171.148 20.9609C171.93 21.4766 172.406 22.0859 172.578 22.7891C171.141 24.4609 169.016 25.6562 166.203 26.375C165.062 26.6719 163.742 26.8203 162.242 26.8203C160.758 26.8203 159.219 26.5469 157.625 26C156.031 25.4688 154.602 24.6875 153.336 23.6562C152.086 22.625 151.094 21.2734 150.359 19.6016C149.625 17.9141 149.258 16.0469 149.258 14C149.258 11.9531 149.633 10.1016 150.383 8.44531C151.133 6.77344 152.125 5.40625 153.359 4.34375C155.938 2.10938 158.891 0.992188 162.219 0.992188C165.141 0.992188 167.672 1.78125 169.812 3.35938C170.844 4.14062 171.664 5.15625 172.273 6.40625C172.898 7.64062 173.211 9.03906 173.211 10.6016C173.211 13.2734 172.328 14.6797 170.562 14.8203L156.594 15.875ZM166.906 9.89844C166.906 8.03906 166.391 6.58594 165.359 5.53906C164.328 4.49219 162.977 3.96875 161.305 3.96875C159.633 3.96875 158.367 4.75781 157.508 6.33594C156.648 7.89844 156.219 10.0703 156.219 12.8516C160.109 12.4297 163.625 11.9844 166.766 11.5156C166.859 10.9531 166.906 10.4141 166.906 9.89844Z" fill="white"/>
</svg>
